<?xml version="1.0" encoding="UTF-8" standalone="no"?>
<!-- Created with Inkscape (http://www.inkscape.org/) -->

<svg
   version="1.1"
   id="svg1"
   width="1024"
   height="1024"
   viewBox="0 0 1024 1024"
   sodipodi:docname="JargoNaut_Icon.svg"
   inkscape:version="1.4 (e7c3feb1, 2024-10-09)"
   xmlns:inkscape="http://www.inkscape.org/namespaces/inkscape"
   xmlns:sodipodi="http://sodipodi.sourceforge.net/DTD/sodipodi-0.dtd"
   xmlns:xlink="http://www.w3.org/1999/xlink"
   xmlns="http://www.w3.org/2000/svg"
   xmlns:svg="http://www.w3.org/2000/svg">
  <defs
     id="defs1">
    <linearGradient
       id="linearGradient10876"
       inkscape:collect="always">
      <stop
         style="stop-color:#ffa8ff;stop-opacity:0.99607843;"
         offset="0"
         id="stop10876" />
      <stop
         style="stop-color:#ffa8ff;stop-opacity:0.60743803;"
         offset="1"
         id="stop10877" />
    </linearGradient>
    <linearGradient
       id="linearGradient10874"
       inkscape:collect="always">
      <stop
         style="stop-color:#2f147c;stop-opacity:0.98760331;"
         offset="0"
         id="stop10874" />
      <stop
         style="stop-color:#9c48ce;stop-opacity:0.88429755;"
         offset="1"
         id="stop10875" />
    </linearGradient>
    <inkscape:path-effect
       effect="fillet_chamfer"
       id="path-effect10873"
       is_visible="true"
       lpeversion="1"
       nodesatellites_param="F,0,0,1,0,0,0,1 @ F,0,0,1,0,0,0,1 @ F,0,0,1,0,0,0,1 | F,0,0,1,0,0,0,1 @ F,0,0,1,0,0,0,1 @ F,0,0,1,0,0,0,1 @ F,0,0,1,0,0,0,1 @ F,0,0,1,0,0,0,1 @ F,0,0,1,0,0,0,1 @ F,0,0,1,0,0,0,1 @ F,0,0,1,0,0,0,1 @ F,0,0,1,0,0,0,1 @ F,0,0,1,0,0,0,1 @ F,0,0,1,0,0,0,1 @ F,0,0,1,0,0,0,1 @ F,0,0,1,0,0,0,1 @ F,0,0,1,0,0,0,1 @ F,0,0,1,0,0,0,1 @ F,0,0,1,0,0,0,1 @ F,0,0,1,0,0,0,1 @ F,0,0,1,0,0,0,1 @ F,0,0,1,0,0,0,1 @ F,0,0,1,0,0,0,1 @ F,0,0,1,0,0,0,1 @ F,0,0,1,0,0,0,1 @ F,0,0,1,0,0,0,1 @ F,0,0,1,0,5.4957715,0,1 @ F,0,0,1,0,0,0,1 @ F,0,0,1,0,0,0,1 @ F,0,0,1,0,0,0,1 @ F,0,0,1,0,0,0,1 @ F,0,0,1,0,0,0,1 @ F,0,0,1,0,0,0,1 @ F,0,0,1,0,0,0,1 @ F,0,0,1,0,0,0,1 @ F,0,0,1,0,0,0,1 @ F,0,0,1,0,0,0,1 @ F,0,0,1,0,0,0,1 @ F,0,0,1,0,0,0,1 @ F,0,0,1,0,0,0,1 @ F,0,0,1,0,0,0,1 @ F,0,0,1,0,0,0,1 @ F,0,0,1,0,0,0,1 @ F,0,0,1,0,0,0,1 @ F,0,0,1,0,0,0,1 @ F,0,0,1,0,0,0,1 @ F,0,0,1,0,0,0,1 @ F,0,0,1,0,0,0,1 @ F,0,0,1,0,0,0,1 @ F,0,0,1,0,0,0,1 @ F,0,0,1,0,0,0,1 @ F,0,0,1,0,0,0,1 @ F,0,0,1,0,0,0,1 @ F,0,0,1,0,0,0,1 @ F,0,0,1,0,0,0,1"
       radius="0"
       unit="px"
       method="auto"
       mode="F"
       chamfer_steps="1"
       flexible="false"
       use_knot_distance="true"
       apply_no_radius="true"
       apply_with_radius="true"
       only_selected="false"
       hide_knots="false" />
    <linearGradient
       inkscape:collect="always"
       xlink:href="#linearGradient10874"
       id="linearGradient10875"
       x1="149.96133"
       y1="900"
       x2="900"
       y2="149.96133"
       gradientUnits="userSpaceOnUse" />
    <linearGradient
       inkscape:collect="always"
       xlink:href="#linearGradient10876"
       id="linearGradient10877"
       x1="267.76996"
       y1="246.47054"
       x2="745.96295"
       y2="724.66357"
       gradientUnits="userSpaceOnUse" />
  </defs>
  <sodipodi:namedview
     id="namedview1"
     pagecolor="#ffffff"
     bordercolor="#000000"
     borderopacity="0.25"
     inkscape:showpageshadow="false"
     inkscape:pageopacity="0.0"
     inkscape:pagecheckerboard="0"
     inkscape:deskcolor="#d1d1d1"
     showguides="false"
     showgrid="false"
     inkscape:zoom="0.5"
     inkscape:cx="628"
     inkscape:cy="564"
     inkscape:window-width="1408"
     inkscape:window-height="1089"
     inkscape:window-x="779"
     inkscape:window-y="31"
     inkscape:window-maximized="0"
     inkscape:current-layer="g1"
     showborder="false"
     borderlayer="false">
    <inkscape:grid
       id="grid10866"
       units="px"
       originx="0"
       originy="0"
       spacingx="1"
       spacingy="1"
       empcolor="#0099e5"
       empopacity="0.30196078"
       color="#0099e5"
       opacity="0.14901961"
       empspacing="5"
       enabled="true"
       visible="false" />
  </sodipodi:namedview>
  <g
     inkscape:groupmode="layer"
     inkscape:label="Image"
     id="g1">
    <rect
       style="fill:url(#linearGradient10875);fill-opacity:1;stroke-width:0.1"
       id="rect10874"
       width="1024"
       height="1024"
       x="0"
       y="0" />
    <path
       style="display:inline;fill:url(#linearGradient10877);stroke-width:0.1"
       d="m 270,550 c 0.43254,11.51784 0,23 0,35 0,11.66664 -0.93299,23.16442 4,34 m 0,0 c 2.64017,5.3982 5.75082,10.75082 10,15 4.24918,4.24918 9.6018,7.35983 15,10 4.73454,2.31559 9.79759,4.15577 15,5 6.59525,0.22679 13.39192,0.51923 20,0 6.82036,-0.83962 13.7156,-2.21997 20,-5 5.49555,-2.43106 10.25658,-6.31067 15,-10 9,-7 13.06398,-14.65878 15,-25 0,-120 1,-374 1,-374 0.5,-1.16667 1.16667,-2.16667 2,-3 0.83333,-0.83333 1.83333,-1.5 3,-2 h 62.5 62.5 l 4,1 206,294 c 2.33333,1.33333 4,1.33333 5,0 V 235 l 5,-5 h 105 c 1.66667,1.07118 3.33333,1.41551 5,5 v 500 c -1,2.33333 -2.66667,4 -5,5 h -90 a 10.218342,10.218342 28.580824 0 1 -8.20066,-4.46758 L 685,656.25 625,572.5 505,405 c -1,-1.33333 -2.66667,-1.33333 -5,0 0,0 4.37149,123.48847 0,185 -0.83544,11.75546 -2.29234,23.53015 -5,35 -2.42181,10.25895 -5.96616,20.26145 -10,30 -2.85235,6.88619 -6.08143,13.65962 -10,20 -4.38109,7.08876 -9.2002,14.01612 -15,20 -7.42737,7.6631 -16.0107,14.24836 -25,20 -6.2784,4.01712 -13.20056,6.9466 -20,10 -8.18761,3.67678 -16.3567,7.58156 -25,10 -9.76296,2.73172 -19.89661,4.16382 -30,5 -18.27087,1.51214 -36.72913,1.51214 -55,0 -10.10339,-0.83618 -20.16101,-2.55623 -30,-5 -5.11505,-1.27046 -10.13073,-2.98308 -15,-5 -9.93138,-5.05938 -20.28267,-9.51319 -30,-15 -5.19746,-3.0162 -10.35279,-6.1902 -15,-10 -3.64557,-2.98865 -6.91135,-6.43876 -10,-10 -5.46001,-6.29545 -10.61891,-12.91124 -15,-20 -3.91857,-6.34038 -7.14765,-13.11381 -10,-20 -2.01692,-4.86927 -3.52644,-9.93972 -5,-15 -1.92128,-6.59779 -4.16038,-13.17964 -5,-20 -2.85094,-23.15851 0,-70 0,-70 1,-2.33333 2.66667,-4 5,-5 h 90 c 1.16667,0.5 2.16667,1.16667 3,2 0.83333,0.83333 1.5,1.83333 2,3"
       id="path10873"
       sodipodi:nodetypes="csccssssssscsccccccccccccccccccssssssssssssssssssscccsc"
       inkscape:path-effect="#path-effect10873"
       inkscape:original-d="m 270,550 c 0.43254,11.51784 0,23 0,35 0,11.66664 -0.93299,23.16442 4,34 m 0,0 c 2.64017,5.3982 5.75082,10.75082 10,15 4.24918,4.24918 9.6018,7.35983 15,10 4.73454,2.31559 9.79759,4.15577 15,5 6.59525,0.22679 13.39192,0.51923 20,0 6.82036,-0.83962 13.7156,-2.21997 20,-5 5.49555,-2.43106 10.25658,-6.31067 15,-10 9,-7 13.06398,-14.65878 15,-25 0,-120 1,-374 1,-374 0.5,-1.16667 1.16667,-2.16667 2,-3 0.83333,-0.83333 1.83333,-1.5 3,-2 h 62.5 62.5 l 4,1 206,294 c 2.33333,1.33333 4,1.33333 5,0 V 235 l 5,-5 h 105 c 1.66667,1.07118 3.33333,1.41551 5,5 v 500 c -1,2.33333 -2.66667,4 -5,5 h -90 -5 L 685,656.25 625,572.5 505,405 c -1,-1.33333 -2.66667,-1.33333 -5,0 0,0 4.37149,123.48847 0,185 -0.83544,11.75546 -2.29234,23.53015 -5,35 -2.42181,10.25895 -5.96616,20.26145 -10,30 -2.85235,6.88619 -6.08143,13.65962 -10,20 -4.38109,7.08876 -9.2002,14.01612 -15,20 -7.42737,7.6631 -16.0107,14.24836 -25,20 -6.2784,4.01712 -13.20056,6.9466 -20,10 -8.18761,3.67678 -16.3567,7.58156 -25,10 -9.76296,2.73172 -19.89661,4.16382 -30,5 -18.27087,1.51214 -36.72913,1.51214 -55,0 -10.10339,-0.83618 -20.16101,-2.55623 -30,-5 -5.11505,-1.27046 -10.13073,-2.98308 -15,-5 -9.93138,-5.05938 -20.28267,-9.51319 -30,-15 -5.19746,-3.0162 -10.35279,-6.1902 -15,-10 -3.64557,-2.98865 -6.91135,-6.43876 -10,-10 -5.46001,-6.29545 -10.61891,-12.91124 -15,-20 -3.91857,-6.34038 -7.14765,-13.11381 -10,-20 -2.01692,-4.86927 -3.52644,-9.93972 -5,-15 -1.92128,-6.59779 -4.16038,-13.17964 -5,-20 -2.85094,-23.15851 0,-70 0,-70 1,-2.33333 2.66667,-4 5,-5 h 90 c 1.16667,0.5 2.16667,1.16667 3,2 0.83333,0.83333 1.5,1.83333 2,3"
       transform="matrix(1.269468,0,0,1.269468,-137.24942,-100.45249)"
       inkscape:transform-center-y="8" />
  </g>
</svg>
